<mxfile host="Electron" modified="2023-08-04T17:58:02.249Z" agent="Mozilla/5.0 (Windows NT 10.0; Win64; x64) AppleWebKit/537.36 (KHTML, like Gecko) draw.io/21.6.5 Chrome/114.0.5735.243 Electron/25.3.1 Safari/537.36" etag="tjBrarHpK-PwojcfC7hS" version="21.6.5" type="device">
  <diagram name="Page-1" id="jms6Ti27FPyRK5-OoepV">
    <mxGraphModel dx="2074" dy="1205" grid="1" gridSize="10" guides="1" tooltips="1" connect="1" arrows="1" fold="1" page="1" pageScale="1" pageWidth="850" pageHeight="1100" math="0" shadow="0">
      <root>
        <mxCell id="0" />
        <mxCell id="1" parent="0" />
        <mxCell id="IPt7vLDkBbHdbNGIL6cd-8" value="" style="shape=image;imageAspect=0;aspect=fixed;verticalLabelPosition=bottom;verticalAlign=top;image=data:image/jpeg,/9j/4AAQSkZJRgABAQAAAQABAAD/2wCEAAkGBxITEhISEhIVFhUWGBgXFxIXFhYZGhcXFRUXGBYXFxYYHSggGBolHRsWITEiJSktLi4uFyAzODMtNygtLisBCgoKDg0OGxAQGy0lICUvLS8tLS0tLS0tLTAtLS0tLS0tLS0tLS0tLS0tLS0tLS0tLS0tLS0tLS0tLS0tLS0tLf/AABEIANYA6wMBIgACEQEDEQH/xAAcAAEAAwEBAQEBAAAAAAAAAAAABQYHBAEDCAL/xABFEAABAwIDBAcDBwoFBQAAAAABAAIDBBEFEiEGMUFRBxMiYXGBoVKRwRQyQmJysdEVI1NUY4KTorLwMzRDkuEkc4Ozwv/EABoBAQADAQEBAAAAAAAAAAAAAAADBAUCAQb/xAAwEQACAgECAwYFBQEBAQAAAAAAAQIDEQQhEjFBBRMiUWGRcYGh0fAyscHh8VJiFP/aAAwDAQACEQMRAD8A3FERAEREAREQBERAEREAREQBERAEREAREQBERAEREAREQBERAEREAREQBERAEREAREQBERAEREAREQBEXPWVkcTS+R7WNH0nEAeqegOhFB0u1dFI7I2obfhmDmg+BcACpsLqcJQeJJr4nkZKXJnqIi5PQiIgCIiAIiIAiIgCIiAIiIAiIgCIiAIiIAiIgCIuDEsVhp25ppGsHAHefBo1PkvUm3hcw3jdncuSvxCKFueWRrG83Hf3AbyfBUHGukR7rtpWZR+kfYu8m7h538FSayrklcXyvc9x+k43PgOQ7lqafsqye9nhX1/r5lOzWRX6d/2L5jfSJvbSs/8ALIP6Wfj7lRq/EJZ3Z5pHPdzJ3eA3DyXMi26NJVR+hb+fX3+xQsunP9T+wUzg209TTWEb8zP0b+03y4t8ioyekkYGufG9rXatc5pAd4E718VLOELI4kk17/nyOYylF5WxrGCbd001my/mX/WPYPg/h52Vra8EAjUHcQvz4pTBtoKimP5qQ5f0btWH93h5WWRqOyIvel49H9/v7lyvWtbTRuSKl4Lt/BJZs46l3tb2Hz3t89O9W+KRrgHNIIOoINwfAhY1tNlT4bFj88y9CyM1mLyfVERRHYREQBERAEREAREQBERAEREAREQBceJV8cEbpZXZWjjzPAAcT3LsWa9KlYTJDCDo1peR3uOVvuAPvVjS0d/aoe/wRHdZ3cHI+WN9IUr7tpm9W323WL/Ibm+qplRO57i97nOcd7nEknzK+aL6qnTV0rFax+/vzMey2U/1MIiKY4C9BtY8l9qSjkldliY57uTQT7+SsVFsFWPtmayMHfmcL246NvqorL66v1yS/PLmdRrlP9KyWjpLlb8ij0+dIzL3dhx08lly2Da/Z51RTsiiIDoyC3MbAgNym5A32Wd4hsjWxAl0JcB9JhD/AEGvos3su6qNPBxJPL2exb1dc3Pix0RBohCLXKQUjhONVFMbwyFo4s3tPi06ee9RyLyUVJYkso9TaeUahs/t/HKWx1DeredA8fMJ776t9R3q6r88ra9j63rqOB5N3BuVx72EtufdfzXz3aWihSlOvk9sGlpb5TzGROIiLJLgREQBERAEREAREQBERAEREB4Vi221X1tbOeDXZB+4A0+t1sdXOGMe87mtLj4NF1gcspc5zjvcS4+JNytjsaGZyn5LHv8A0ijrpeFI/hXbo9fRkPinbGZXns9YAczbDstJ3G99ON1SUW1qKe+rcMteqKNc+CXFjJbNrdkJIHl8DXPhcdwBLmHkRvI5H+z9dk9i3TgS1F2RfRZuc/v+q31KnujXEZ5Y5GSEuYwgMeTrqNWX3m2h81cajNldkALrHKHXAvwuRwWJfr9RVmhtcS24vT+H68y/Xp654sXJ9DjHyaki/wBOGMeAH4uPqoRu3VM6WOGJsjy97WB1g1vaNr9o39Fnm0r6ozu+V5s/AH5oHDq+GXwXuybL1tMP2jT7tfgpodl1qt2WS4nhvZ7cs8+v0I3q5OXDFY3/AD4GwY1iIp4XzOaXBliWi19SBpfxURhm2tHMQ3OY3HhILfzat9V17YMvRVP/AGyfdY/BYoq+g0NWoqk5Zzn+PIl1F8qprHI2jHtmaeqF3NDX20mbYO7r8HDxWXYrs5UQS9UY3Pv8xzGkh45i27hcHcrV0cS1p0tem5vvof2XPvG5aIkdTbobHXlSX57fAOqGoip4wyj7MbKxU0ZnqwzPa9n2LYx56F3f5BUPaGeF9TK6naGxE9kAWG4XIHAE3Pmu/bbEJ5KqVkpIaxxDI76AcDYbyRrfvVfWppKJ57+yWXJclySZTunHHBFYS9wtL6K6u8U0R+g8OHg9tvvafes0Vt6M6rJV5OEjHDzbZw9A5ddow49NL039n9sjTS4bV7GsoiL5Q2AiIgCIiAIiIAiIgCIiAIiICube1fV0U3N9ox++df5cyxxaL0rVfZp4eZc8/ujKPvcs6X0vZNfDp+Lzb+33MrWSzZjyR6vEXfgEGepp2HcZGA+GYXWlKXCm30KqWXg2DZ2gFNTRxmwytzPP1jq4n++CquEbfgzvbOAInO/Nv9gbhn5g778L+6zbY1Bjoqhw35Mv+8hvxWJrB0GljqYznbu2/brn9vlsaOptdTjGHT/DdsUwuGqjyStDmnVrhvF+LXcFUsH2Gkgq2S9Y10TCXN35ybEAEWtx33XF0a4vOZPk5BfDYkH9GRwvyPL/AJV/xGuZBG6WQ2a0XPwA5k7lVsd+klKiLyn/AD6dH+b7Ese7uSsa5HmK0nXQyxXtnY5t+WYWuqbs/wBH4Y7PVOa+x0jbfKe9xIBPh967MH2+imlbE6Mx5tA8uBGbgDppdW2dxDXEDMQCQ3mQNB5rhy1OkTqfhz/mz+x1iq58XPBw4visNJFnkIa0aNYLXceDWj+7Kv7HbWuqp5Y5AG3GaJo4AaOaTxO4+9Z7jeJzVEpfPcO3BhuAweyGncvtsnUGOspnD9IGnwf2D6Facey4w08uLeTWc+XXb9myo9W5WLHItfSnhg/NVIH7N/qWH+oe5Z8tk29gz0M/1crh+64fC6xtT9lWOWnw+ja/n+SPVxxZnzC78Cq+qqIJeDXtJ+yTZ3oSuFeELRlFSTi+T2KyeHlH6FC9UbgFZ11NBJxdG0n7VrO9QVJL4mUXFuL6G+nncIiLwBERAEREAREQBERAF4V6vCgMh6RazrK17eEbWs87Zj6u9FWF04pUGSaaQ73yPd73GwXMvs9PX3dUYeSRh2S4pt+oJU5shRSvq4HMjcQx7XOdbQNB1JJ03Kw7HY9Q09NaQZZQTmOQuL9ezZwG61hZfWq6SQHWip7t5vdYnwDQQPVVLb9RJyrrqfVZbwvz5k0K60lKU/kXPHMNFTC+Fzi0OtdwtcWcDpfwUZh2xVFFY9X1h5yHN/L830UvhNa2eGOZu57QbcjxHkbjyWXY/tFiEc0kL5y0tJHYa1txwIIF9RY71jaSq+3NUJ8OOa3+HTcu3Trjico5NZhiawANaGgcAAB7guHH8N+UU8kN7FwFnEXsQQQbeIWMmqnme1plke5zgG3e49omwtrpqtypIy1jGuOYhoBdzIFiV5qdLLSOMuLL5/DB7TcrsrG33M6wPYOdtQx8zmBkbw7Q3L8puLDSw8VpajqDGaeZ744pWucz5zRfna45i/EKA6TaeR1K17HENY8F4B3g6AnwNvek526q+MLfC+XLGM+nqIqFNbcNyyVuGwzC0sTH/aaD7jwUC/YWlEjJY88ZY9r8oddpyuBtZ1yN3ArM6XGqmP5k8re7O63uJsr90f4pWVDpHTSZomC1y1oJee8Abhv8QrFujv0tblGzw/Frnty3RFG6u6XC47/IsO1VO+Sknjjbme5tg3TXUX3911iksTmmzmuaeTgR961zbDaf5GI2tYHvfc2JsABxNt+vxUZh3SHA/SojMZ9odtv3XHuK70E76anKNfFFvOz38uXP6HmoVc54csP6GZop3bKup5qjPTNs3KA4huUOdc6hvhbXioJbdU3OCk1jPR80UJR4W1nJqvRlV56Qs4xvcPJ3aHqT7lcVmXRTUETTx8HMD/Njrf8A36LTV8v2hXwamXrv7mtppZqQREVMnCIiAIiIAiIgCIiALwr1EBkG3Wz7qeYytF4pXEg+y46lh9SO7wVYW9YlQMnjdFILtcLHu5EciN6xfaDBn0sxifqN7H8HN4Hx5hfSdm63vY93L9S+q/rr7mXqqOB8S5P6EaiItQqF66N8eDHGlkNmuN4ydwcd7fPeO+/NT+2+zHypokiA65g0+u32SefIrJgVpOyW27XBsNU7K/c2U7ndzuTu/cVja3TWV2f/AE08+q/n1T6r8V2i2Mo91Z8iH6PMGc6qc+RpHUbwRYiQ6AEdwufcrdtzjXyenIabSS3azmB9J3kPUhWNrBqQBrvPPlc8VSNrtkqmqmMrJYyAA1rHZm5QO8A3ublUo3w1OpU7sKK6fDp82WHW6qnGG7KFgmJupp45m/ROo9pp0cPd8FtUjY6mAi+aOVm/6rhv8VmjOj2sJ1MY785+DVfNk8JlpYOqlkD7EltgeyDvbc79bnzU/ak6bMThNOS/b+iPSRnHMZLZ/n1MuoNm55ah9O1urHFr3kdloB3nx3gcVrNHTQ0dPlByxxtJc48ebj3krprKqKBjpJHNY3e5x0ubep0WV7X7VOqzkZdsIOjeLyNznfALziu7RkljEVz+PX4vyXQYhpk3zkRe0OLOqp3zHQHRjfZYPmj4+JKjUXq3oxUYqK5Iz5NyeWeIiu/R9sz1jhUzN7DT+bafpOH0j9UHdzPgo9RfGitzl/r8jqut2S4UT/R/gBp4zLILSSgdn2GDUA953nwCuC8C9XyN1srZucubNqEFCKigiIozoIiIAiIgCIiAIiIAiIgChdpsCZVwlh0eNWP9l34HippF1GUoSUovDR5KKksM/P8AWUr4nujkble02I/veF8VrG3OzPylnWxD88wf72+z4jh7lk5C+r0eqWor4uq5r86PmjHvpdcsdOgUhgOFuqZ2RN4m7j7LR85x/veQo9XHYDHKamE3XEtc62V2Um7Rfs6bjdSamycKnKtZfTBzVGMppSeEWLbTax1K5kMLWl9g5xdqA2+gsOJsVHUnSVp+dp9ebH/Bw+KpmO4gaiolm3Z3aA8GgWaPcAuBVKuzae6ipx3xu+uSWeqs424vY0x3STBwgl97B8VGVnSRKdIoWM73EuPuFgqMikj2bpovPD9WcvVWvqanirjiWHdZGLPBzdXv7TLhzb94Jt5LLFcNgdpI6brI5yWscQ5rrE2cBYgga6i3uVdx6ojkqJpIhZjnktFrb95twubnzXOjhOmydWPDzi+m/T88jq+SnGM878mcKIu/BMKkqpmxR8dXO4NaN7ir0pKEXKTwkV0m3hEjsfs6auXtXELCM7ufJgPM+g8lsMMQaA1oAAAAA3ADcAubCsOjp4mxRizWjzJ4uPMldy+U1mreosz0XJfnV9TYppVccdeoREVQmCIiAIiIAiIgCIiAIiIAiIgCIiALOOkPZm2arhGn+qwcP2g+Pv5rR1/EjQQQRcHQjmFPp9ROianH/V5Edlasjws/PiK5bUbEyxvc+mYXxHXI3VzO7LvcOVlXvyDV/qs38KT8F9VVqarIqUZL33/PxGROqcXhpkcikfyDV/qs38KT8E/INX+qzfwpPwUneQ/6Xujngl5P2I5FI/kGr/VZv4Un4J+Qav8AVZv4Un4J3kP+l7ocEvJ+xHIpH8g1f6rN/Ck/Bf1Hs/VuIApZrnnG4D3kABO9r/6XuhwS8n7HBTQOke1jGlznGzWjiStk2VwFtJCG6GR1jI/meQ+qOH/KjdidlfkwMstjM7QAaiNvEA8XHif7NwXz3aOt7593B+FfX+l/ZpaWjgXFLn+wREWWWwiIgCIiAIiIAiIgCIiAIiIAiIgC56uQtje4b2tcRfuBK6FyYn/gy/Yf/SUPHyOPZ3EXzxue8NBDsvZvusDxJ5qXVOwHEWwUsjjqS8hreZyN9F309dUfJ5J5Mo7N2Ny/zHXdyVi2nxvh5ZwitTf4I8W7xlliRRez1a+aLO+18xGgtuXJhOKSSVM0TsuVme1hr2Xho18Co+6l4v8Azz98Eytj4f8A1y/c/rBsWfLNLG4NAZexF76OtrcqdVEw6olbUTCFoc9xcNdwAdclSAxmpgka2paMrvpADQcSCNDbkprNP4vBjkts7lerUpQ8eeb3xtzLWihMbxcxlscTc0j9w4AHQeN1wz4nV05a6docxxsbWuO4EcfFRRplJJ+fLzfwJpXxi3nO3N42RaUUJjONCJrcgzveLtHCx3E/ALkZNiGjixtiR2bN0B5i9/ikaZNZ2Xx2PZXxUuHd+eFnBN1FdHGWte4AuNgOJubDQd658drnQxZ2gE3Asb218Cqzjrp/lDM7RmDvzVrajP2b68+a7cXfOaV/XtDXZ22tbd5E8VLGhLgbaefzYglqG1NJNY/NywYZUGSKN7gAXC5A3eS7FG4B/l4fsqSVeaxJr4lqDzFP0QREXJ0EREAREQBERAEREAREQBERAFyYn/gy/Yf/AElda+NTDnY5l7ZgW38RZDxmeU9I/q+vaAWseAWnXkbkctwVtqa1s9HK9vsG7fZI3hdOE4U2GN0d84cSTccwARbyXww3AhC5xbISx1wYyNCDu17lbtujNt+T29UU6aJ1pLzWH6PzPnse8fJ7X3Odfu3FR2zjwa2cg3BDyDzBlaQV0u2TZmOWRzWn6Nr6cr/iF24ZgTYJXSNcbFpblI3Alp38d3qkrK/G0936HsK7PAmto+voROzMgFVOCdTnt39u+i+220jcsTfpXJ77Wt6m3uX2fsswl5MjsxOYEAdnUnz3+i+lBs2yN4ke8yOBuL6C/M77leuyvjVmeXTHocKq3u3W1zzvn18vMh8QhcKuNrpDGS1gEnLsZeY43HmpOo2ekeLPq3OG+zm3Hjq5SeLYVHOAH3BG5w3j8Qotmyg3OmeW8gLfeT9y8jcnFeLDXpn5o6dLUn4cp+uPc4MQjENVT5zdrWxjMRbRtxfu11VyzC176c1xYlhjJmhr76bnDeFER7KAEXmcWg3DQLfE/cuHKE4rieGvQkUZ1yfCsp78+R8dpz/1VN+7/wCxd+2H+XP2mrpxnB21Abclrm3s4a6HeCOK5m7PDqXQmVxu8PzW5AC1r9y9jZDEG3y+5zKueZpLaX2wdmAf5eH7KkVzUNN1cbGXvlFr810qCTzJsswTUUn5IIiLk6CIiAIiIAiIgCIiAIiIAiIgCIiAIiIAiIgCIiAIiIAiIgCIiAIiIAiIgCIiAIiIAiIgCIiAIiIAiIgCIiAIiIAiIgCIiAIiIAiIgCIiAIiIAiIgCIiAIiIAiIgP/9k=;" vertex="1" parent="1">
          <mxGeometry x="310" y="271.5" width="172.4" height="157" as="geometry" />
        </mxCell>
        <mxCell id="IPt7vLDkBbHdbNGIL6cd-13" value="cli" style="shape=image;verticalLabelPosition=bottom;labelBackgroundColor=default;verticalAlign=top;aspect=fixed;imageAspect=0;image=data:image/png,iVBORw0KGgoAAAANSUhEUgAAAGEAAABWCAYAAADfefi2AAAAAXNSR0IArs4c6QAAAARnQU1BAACxjwv8YQUAAAAJcEhZcwAADsMAAA7DAcdvqGQAABHNSURBVHhe7Z35UxRnGsdf8EIEFRFQvO8D8RZQwSNGE7M51iT/wWazqdp180s2+wdk/49sVY6q1JbJZr1Wsx5E8b5FUfGOFyKCIp6I25+n5xnfGYZhroZR5lvVJTPT/Xb3832f8326TWtra3thugDPnz83aWlpJj093fdNCooulQgkpNAeaS9cuB88FFJra6togRea4PX1ez1+yjYkAVIkJAFSJCQBUiQkAVIkJAH80dGTJ09MS0uLefjwoXn2rNX5KbHpQ2vrcycy8iZP4PpdpDkRjO/PBCIR46elpZu+ffuagQOzTf/+/U3v3r19v1gkXLx40ezZs9ccP37C3LlzR0LKRIJz9NQ8gfuGgJEjR5qlS5eYWbNmmtzcXN+vFgnffvud2bt3n7l586Z59OiRxX4KiUCvXr1MVlaWmTBhgvnoow/N/PnzfL9YJHz11T/M4cNHzOPHj6XEkEJigTYoEZ9++kezatVK3y+WY25ufiAakCLAGzDRMfHNzc3if234NeGLL/4m/sAGThRb1lNtebxgQiP4trY23zcu1q79i/ngg/d9n8KQgOCzs7PN+PHjzYABA3zfxg7O4XLZcwi9efOGs90SC2MjYhIIoSZNmmg+//yvZuLEib5vY0dPLOCtW7fO/PzzenPjxg3fNy6CSUgla0mAqElgVpDQnT9/3mzatFlC240bN5mrV69KZBVs/7CL9fV3zK5du80PP/zL/PTTv82RI0fNvXv3/TNMwb737983p0+fNj/++JMz9vdm+/YdMpOePn3abv/XBVGTgJBv3Ljp5BR7zY4dO0RIbFVVe8zdu40B0RVCg5gjR46YX3/dZXbu3Cn77t6925w7d65dQkjUcOXKVVNZWSn7MT7HcPyDBw9SJCgQ8rVr18yJEycdbbggs/TChQvmwIGDpqmpPQkI9uDBQ+bs2bNy3JUrV0x19Slz6tRph4TAcJh9L1++LJrCftevXzc1NWfEV6VIsIAgmpvviznRxI5/KXWEMkfM9rq6OhHis2fPxKwQK9++fTvkvvfu3ROTxH6MTT2rsbFJPr+uiJoEIoSBAweZQYMGmn79+km0k5GRYYYOzXVyin7O74FDEmUVFBRIpsjfffr0cY4faPLz89tFSvw+aNAgGZ/8hAyT8DgnZ7BzXF/fXq8foiZBQ9eysoXOv5Mc4Q+VesjKlStF2H36WNVBh7DMzExJ0YuKisywYcPM6NGjzbx588yiRQsdQffx7emCfYuKppvy8nIzatQoGXvGjBnyGSK8CG+TAf6Wl3B5AkK28eTJU8cJ3zUNDXecSOmRlGaHDStwZjEztndAPI3JwRThzPmXcRFoXl6+c1xG0L74EExbg4xNSZ2EMT8/T7SHY18lrFv3o/nPf0LnCe+//57vUwSaEMoXYioKCvLN1KlTzZw5c8y0aVOlNBtMAGD2upn3ODNzZrEzs4ukpBtMAGC9AdNWWDhcNGD27NmSKA4ePPiVIyAadKgJ2ONRo0aajz/+yIwYMcL3bex4/rxNhI6gewoqK391wvEqCVpsBGtC2NoRTnHs2LFiq+PFixcuCc7I7hc9AHV1t5zttkSNNiKuHaXgHVK1oyREioQkQIqEJEBYx0yWS4iYlZWYRR2cclBU+lqD2hf5UcyOmRB13Lix5pNP/iARUrygDkTOEJwbJAJcP/BibBDr+JT4t27dKhGSjYhJsDPmZF9ZIyvnHtgQlL0lAowLoh2vx6ysISCqsqdP15idOyvNtm3bncl03DQ1NbWr0iYrXnkS0DDWNbZv3+6o/0azYcMG88sv/zPV1dVSOn8V0K0kMIt1PYLiHht/I1g1AeHAPiwEHTp02L/IRDsnBLCQBAnsg0awHsGyLP1VnIfPyaIp3UoCQqCucuLECTEl1FpOnqwWU2Kv0HUE9mFxqbb2nDNOvRBIhbep6Z757bffHDLdMfieSAWytm3bJuvdkAUZyUBEt5DA7GS2I2yCgfXrN5pvvvlWmgZoHqitPd8urAsGYzx+/MTU1992hNni1x6cJ0EF9S4tFjY03BUCKC1//fU/zXfffW927NgpRLBy191EdAsJzGAIOHbsmEPABvmXz42NjWJK9u3bJ8uc4YDAHz16KOvWEKZPAhNas/bA4hF/A4R9+PBh+ReThPZt3fqLNBOwPs53jNdd6HISsMWsLx89etRxohsds3FV7DrEMCOx45iJzsyRS8Jj53glwZ3NLgnZDgmj/CQwPotPqi38iwbQAE1HB50fnLO7iOhSEhAGrfe0sDALL126LMJRAWJGhgzJcZLEcbJaFw4IjBms/U4qQASflZVthg8fLn9jnlgmZU2ECoDG+pyT1UEcOr6opqZGGgwi8UWJRpeRwAy/deuWOOF9+/abs2fPiRCVAFbrWMYsLp4hq2/h+l91NpMfkAhBrpJAI4G7JPqykYCVuuLiIjN58iQhQr/nmshm8Uv0TdGWgxnsaiI8JwHhcFP19fVi7+lPOnPmjAhQCUBwCK24uNiUlZWJJtDJ0RFUC+7ebfALje8QbkZGPzN48CBZElVh5+TkmOnTp5uSkgUOEZN9Ttv9zTaPPCSD30Aj9Nq6Aul3Wpwow8lpvHjDhRKAwz116pRoAE1fdgsk5mHIkCEy+8vLF8vaMo5V7XkooAUI/9atOmc2v8wpMGccm5c3VMyZmh4ILSwslC6PJUvK/eZOf4cINGL//gPOJDkgDWhdGb6mr69uNZcbnaQnsY+o+QngZlB3ohHsLxpgE4AwZs6caZYtWyZtMZgSFU5HUGJpPUdQOh7CzsvLM8OGDW83BuaOlpuSklJpwYEUNFD3U20ldK2s3CX+CnJ0bC/hmTnipnB8ZK7E5xcvXgqw3ZgDzMLy5cvMihVviL2OdC2bsQlp6+rqA2YrJND1gW8JBbSLdhueF3v33d+ZadOmyTFKBNd2/36z9NlS/Txz5mzANXuF9Den9DYjB6eZvh1rf9Rw1btOoqAtW7ZILM+DEiowzAbCWrZsqamoqDATJrgPoqid7gyYI7JiEjWbBEjEtNHFFwoIGyLwF3PmzJbz44c4t60RmDq0luwaZ4328r1XSC/MbjOZvdtMR50o3CQXEOmGsCkR0NRLu8e5c7UBcbzbs1Rg5s6dYxYtWiT2WSOhUOMFb5pHoGUIS2cpQoQECMDEhTqWjetgXyYBkVhpaYmZOnVKQNTEfiR0VGMppxBIYP6YXMHjhdvcBLK9FnHN9n4JM0cMzEVqGLp//34pL9saoE1j3PzixYvEBGVnZ4V1wsGABLf7766ULRRuj2u2kBAusgKQgDYyGWhIKysrlZZOiOBauBfOw3MVmFOiJp7HwASihfEjkJh0TsoM8GljO/Ab+4TbdAZxkUQ/dhiqM5WbxmkWFc0wCxeWiRPGLEBMqDE72hACwmloaPCPDejcY3Zj8yMdE40hiZs7d670xtLuGZxH4KwPHTokZBA1ERqrWetsc2tX7QVL03TAfr7v4wIqhWkgDKVCiQYEh6HMUDSgvHyR2GE+8320wLTRVAUJNjBpZMZ0dEczLlpDdo02LF1aYcaMGR0QvnJvL8PXg/LcRPCDgPEiISRQhzl58qTZtOm/UofhsxLArMJWl5SUODF6hfSvMttiRUsLSVqjnMMGCRrt+QMGRN8tiJZC4IIFC5xIbYUs5wZHTZBOnkOJA42wtTBexE0CF4ONJr6mjmOXIrgJZhXvc6ioWCw3Rx6g6h4tOJfrlNuTkJs7VMwR54sWXCdEEFkRNS1fvlSanDEVCsygW+U95ZinI8lFAsBBXrt2PYAAwM3hMOnaIFHCZNg3Fg24aWw0foeyAvG7gjFzc4c42pAj/iBWcK2UOHg2Av+lmqDg/BBBaJx0JPTr50Y91G3sWc6FMoN4oJpnDiAJGxsrMEWsoNklBdW2nJwhYuaY0bGCa4VgfABkBwuasYnA0JhgguJBQkjAyRJv89wB9l+J4CZwpIR41O4xV7HWZDjmwYNmEZBtihAGURYbkyAW4aiWYVZ5UJFFJfIbe8JAAJHXlCmTpc6VSMRNAjeNnZ8/f75UQN0HQF5GF8wucofdu3dJ7qB+I1ogKCIwQkZW1BQQjinS0DQWaHRHWE3XBnmOnQhyDiYaZQ5qT1Rik04TtBRNFZR4mywYjdAL5WbcMO+gqaqqMpcuXRIi9CYjAZpAyRmbzGK+olevdCnG8SAj1xEtmCRoAOE1rTLu4s7L/EYJIKzm/gizqdQmHQlcEOqK812wYL6TjJVKPcjOXFUjKGdABPG2vSIWDuyDubh9u15qRvyt6NWrtxPbjxFzFK0/QAMggDcIsMyJJkCAmkscPj6AiIn8Bk3gPLbfSwQSNhpEYA4wR9TtSX4mTpwQcMFENDTIumu7lX4iOgNCwSkTq9vOnbHdZ9wK/SWHSAGxbshZLW8b0HUOHZv7gQCem0MDIACHHI/j7wiJpdQBQlEiFi5cKA8MQo6qL0K/fv2GY5r2SXZ9+fIVcbThnLVGLeQHWuN3Se/jCCZH/IGdXHUGBE30Q48Ty5pUTNEwvQbIJVSltEKOw7/kILGYu0iQcBIAAqEmQ8TEWsGIEYVCjmqFmhYW+/fs2SNEBOcYNtifR2p5bUNrq2uKEHhGRn/RAh27MxIgTwklw6dCeuzY8YAal2uCBjqCny5rHSw44RNizW8igSckIAytyfAg+KpVq6QFRWer2njMAURUVe2WqImajArDBrOfXIPZql11jEMUNnLkiACCwwENgADC0M2bt4gpImS2zRtmDR/wxhvLxRRFa+ZigSckAISEGUKN8Q/YVXfx5mXUxM1j5ymOYZe1OSuYCMjRdV8VGMjM7O+QO0ZI0DE7gqtNDWKCNm/eZGprawMWayCA+hMVVSYOjQFdQQDwjASAYLCj1O3xERTxxo+fIOULflPzwII9q3AsAgW3JiIkhE+/km2yCE0Zh2et0bBwmgABlL+Z+URBNTXuapmOhbPFtxCGss5BkdFrE2TDUxKAagQ+gqf/aTvhvXp2dqtRE20nvCCXlTlMkP6GE9XQFOIQOC8zQVDUeGzHHwqYIJYpydyJgvisGqAE6Ds03LcTeBMFdQTPSVAwW6nVz5s3V4ggoSO6UeFp1ET4SqUSbUDghKb19Q0BK3SQoA1edpmkI6BFLFUyLoTa42hP0uLFi2WVDfPZlQSALiMBYLtp1CVqYtYR2TCLFcx+GgTIWrU+1NLywImk6gKqpjp7cfwIMpwWAEggS7eLchxDHsD6ckVFuThjCOlqAkCXkgA0fOXG33prlbwdhhtHKGwINT3d7SEF2G6EqPkBwFaTuXJsZwQAlhPdcd3b5RjIpwShURCmTX/vanTLWXHWZJ8kc2+//ZZjDqaJeWEjuWMNGqEgdLJY7TdVQAKv9cnPL4jIeRKVzZo1SzQHbYRAFplYRcMUaaDQXUjX2RUO7BPvZo8DIIIlRaqvq1evNmvW/F62d95ZLV0YCAsgfB5xamtz+011FkMSJsmGjh+8YeepafHE5Jo1a8yHH64RAqiGastlqON0U4T6LfzmOzAE7P061YRwA8UDhAkRzE6iJrJTmrH423aOOF4+Ew0hLHIDjqHT2q7UhgP7UeQjX3nzzRVmyZIlZsqUKeIDItEkr9EpCYnU0mCB8RkfQUiIn2BDMJpZA1bs+P8GECLtjWPHui+vIrqKtJaDoDE5hLNk7hCI6VNf1N1Ij+Qi2CfeTRHqt442HCXlcdYoKKQRRqItpaWlkqTpfgr72ERuilC/hd98B4aAvV/3hANRAFOC7eYNZJ999ifxGzhyZvbrgqQnoScg7FteKGhNn14kSU28oDkW9WTcREODBw+GFsQ6PiX6q1dZLwlcU4/q9Ws4NMLBREQQnAN4QUKygloXm5ZJFB2S8OWXf5cFDv5OwTsQbKxd+2fz3nsh3ouamTlAEqTuSt17AjRUDn7ltF/iFNao+ysRGj6ltsRsSgD5DbmQDb85ot2DWj4rT6xA2StYiQDnAFxQTwP3jG+laswKI6t3JKEKPwnU63lFPq/lp7mK7xIJSOWhieC3yicGeq1eERzf+Mw7rAtWhhIM2bqd7ftJkA8ezlKWMbkQL3yO19fv9fgpL9ztMOb/h8cpKHJ5MhgAAAAASUVORK5CYII=;fontSize=20;" vertex="1" parent="1">
          <mxGeometry x="172" y="320" width="56.4" height="50" as="geometry" />
        </mxCell>
        <mxCell id="IPt7vLDkBbHdbNGIL6cd-14" value="" style="shape=image;verticalLabelPosition=bottom;labelBackgroundColor=default;verticalAlign=top;aspect=fixed;imageAspect=0;image=data:image/png,iVBORw0KGgoAAAANSUhEUgAAAYYAAACXCAYAAAARffxvAAAAAXNSR0IArs4c6QAAAARnQU1BAACxjwv8YQUAAAAJcEhZcwAADsMAAA7DAcdvqGQAADLTSURBVHhe7Z0HcJzneeefLeiVIAD23qtYJVIS1YtVbElWSVzOSZzEyYxzd458k8nlMjnnbiaZ1JvJOfE5tuM4suMW21GsYhWrk5TYxE6xiA0kCBb0tgC23PN7v11ydwUQIBcLgtjnN/ORi63vfrv7/N+nvM/rO9feEYuGw+KOaEQkJoYx5uFr3tEjEtULRXki+QHvesPIGXwi/kBAAnn57v9kfA0trbFwKCR9PSEnDoZhGEYO4PNJIBiUvMIiCRYUpIiD71TD2VifCoPEohLQG3x6Z8MwDGNsE4vFJKzOgD8QlPziYskrKorfosJwvO5ULNLbIyUlJVJVVSV5eepXG4ZhGGMWRKGvr0/Onz8vPb29kl9ULIVlZfFbRfyJpALeQlDdCsMwDGNsQ2QIJ8BFiFQkEjqQQIXhEhZGMgzDyA0uZ+9ThMEwDMMwTBgMwzBynFB3SBovXJCmxkbpaG83YTAMw8h1Wlqa5dDBg3Lk8GE5VVdnwmAYhmFcKl9tamoyYTAMwzBSMWEwDMMwUjBhMAzDMFIwYTAMwzBSMGEwDMMwUjBhMAzDMFIwYTAMwzBSMGEwDMMwUjBhMAzDMFIwYTAMwzBSMGEwDMMwUjBhMAzDMFIwYTAMwzBSMGEwDMMwUjBhMAzDyHHY9pm224nDhMEwDMNIwYTBMAwjx/H5OHwXDxMGwzAMIwUTBsMwDCMFEwbDMAwjBRMGwzAMIwUThmtIOBKT9u6otHRGpDMUlUg0Fr/FMAzj2mHCMMJg+0O9UTnbEpbD9b2y9XCXbPqgU94/2i3HzvZJY3tYesPUEscfYBiGMcL4jtfVxSK9vVJeXi7V1dXxq41sgWdwsD4kz77XJm/t7XQiAHlBn0yoDMqN84rksfUVMqUqXwryfO42wzCMbFBfXy+hUEiaWlul/tz5+LUmDCPGifO9svt4yHkI+06GXAipqyd60TOgjjjo90lhvk/KiwOyek6R3LGsVJZML5TSQnPsDMMYfkwYrgGEjE5e6JP3DnXJfhWD0419cr4tIm1dkfg9BqaqLCCTx+XJjNo8WTi1UNbMLZIp4/MlYBphGMYwMaAwHDxaFwvGTBiGEwz/ifN9cqAuJPvreuSDUyGXU0iEja6E4gK/CgLiUCCLpxXKIv2fv7neMAwjEwYUhnf3n45V5ffIuIoyE4YMIKl8vjUs9eoVHDvXK3vVQ9h9rFvONIfj98gMPAUEYc3cYlk2o1BmTciX2oqgVJQE4vcwDMO4MgYUhld3nolNLg5JzbhSE4aroE+9gM6eqDS1R1zI6Je72uW4CkN3b/bKiiaOC8qKWUVy0/xiWTy9UMqLAlJS6FPxsGS1YRhDx3IMWQDTf1JF4Je7OuS5bW3OYxjJpQj5QZ/zIj65vkJuX1oq48vMezAMY+iYMAwTVBGRVD54ukfe3u+tPyB/0BGKugVrI4mrZAr4nMcwuSoo6xYUy62LS2XupPz4PQzDMAbGhCFDImr0G9sj8v6xbtl+pFtON/W5fEJzR0T6RlgQ+gPvoaYiKDNq8mXu5HyXqCbcVFLgF7/lqQ3D6AcThqsEo48AHKrvkQN1epwKyZEzvc5rGI0dLFgoN64kIDNr82XRtAJZNLVQ5k0ukJrygATUuzAMw0hgwnAFYPC7e6JySgWhoblP9p3scSGjI2d6rqrk9FqABLByesmMQlk9u9iJBPmI8SoQBXl+d7thGLmNCcMQiEZVENQTaOqIuMqiV3e1y97jIRdCyka4iPxAWZHfrXjuobopS430CDPNmZgv6xeWyIrZhTJ1fL5UFPslXwXCCpkMI3cxYRgCrV0R2f5hlzy3tV3eO9gVvzY7YJBrKvLkobVlMmlcnlsM9+beTtdEL5sgErctLZFHbiqXhVMKbaGcYeQwJgwDEFEv4UxTn2w+2Cnvqhh82NArHd1R5zlkg3GlAbdA7c7lpTJ/coFUlgSc59DTF5N6HceWQ12y7UiXy2PQS2m4oZIJMcBToQ/ThiUlsnZusRuHYRi5hQlDGhjdY2d7ZeOBTjl0usetUD7XGs6KMQa8guWzvEohksGUl1JmiqFOQP7ifFtYLug4KIfd/mG38yQIZWUDmvWxWG5mTb4snl7gFsxN1HHiVRiGMfYxYUgCAdh5tNutQ6DTabYWpmFgaaW9KN7jiP9n1OQ5gzwYrKT+sOFSJdQHKhQIRjbGWZjnLZRjfHcsLXGlrtZqwzDGPiYMcQgTvbWvQ57f1iY7j4Xi1w4vGH4EYaoa2wVTdCa+oFimV+e7ltpXSpuO98MzPa5d91H1cE5d6HML6rLl2WxYXCKPrauQFbOLbD8IwxjjmDDE2XmsW555vdnlE4aTROye8BD9i9arGKyaU+QEYjjAU2Ax3Rt7O2TTARUJ9SbY0yEbuZAnb6lwbTam19gKasMYywwkDDlXkkJyl5bYw01ewCfrFpTIHz1VK3/4eI08sLps2EQBqGKiF9LjarD/5FcnyH9+uFqWzyyM3zq80CqcwzCM3CTnhIEVzOQUhguqjO5eXip//fnJ8sUHx8viqYVSmJ/d01pW6HeJ4t9/pEb+4tcnyz03lA1rTuDk+V6pu9Ab/8swjFwjZ4SBslQMXktnZFia3VFldP+qMvnC/ePlM3eMc6WfteohkEfI9qIxeh+VqDiQMF45q1A+c3ul/Bf1IB5eWy5Tq/Pi97p6yF8gntleU2EYxugkh4Qhpt5Cr3SFMhMFjD5ewsdUFEjSUsVDgpnKnqvRA5LLu451y1v7Ol1pajIY5xPnel2FUn8wFgRivr7+7TqOR2+qkJsXlgyp6ulyIKK8JluRGoaRe+SUMJCw7cowWctmOHMnFbgFaixUy9QIIwYvbGuXH77dIv+xpc0lxVnDsONot7y6q0N+vrVN3jnQ6VZl0/J7IIry/a4f0uo5RTK5KnOvoUVfjwoowzByjxwLJfW5rqiZwCplkr7E+YeDHR92y7YPu2T38W55bU+HfPPlJnlRheJbrzS56qnvv9UiP93cKnU69qH0UcKbYa1EprR1RaVhmLYlNQzj+iJ3hCESk8P16jFkWP/P3su0shiuHkMzavPUmJOb8Lu9FNYvLJayYr/bMjS5cd9QA2BOGGozLzOlNPbEeUtAG0YukhPCgJG90O7tskYH1UzAY6ClRfEweQw9vTGpLgvIE7dUyJ9+aoI8fnOFO7hMUnm6zv4RIcRoKPspVKnIIDaZgmdFew4S0NlYbW0YxuglJ4SBRWBHG3rdDDwTG8esPmGoM608Yhw0zjtwqkcmj8+TWxeVyKSqPNfMjoPLbNO5cnax94Ahkp/nc4+vKE7tw3SlIAZdPTE53ajCYMpgGDlFTghDZ0/UNcrLdK+D4gKfqwAinJQJIRUE2lz8eGOL7D7R7RauseNaOtOq81z5aXt3xG0UNJQyW1eppMI1XZ+PRHkmsFkRjQbJzxiGkTvkhsegM9/hMHDF6jHMnogwZGZwO9TQbzncLT94u8WVhFJtNNBTcnVjW0Re2Nbm3gNexmAQ5nKhpww/XSeo9ZkL6kjTFxFp7orJyaZLR3vIK0AYKufaUx9/ueNUc0waO2LS1Xv51+As9urYuH/ica3dw3Nue8Mi53XM++ujsv1EVN45HJU3DkbkrUMRee9oVHafisrxC94YL1fdZhgQ+NLTT38lFolIQUGBFBdfWdjieoAfwZnmPlf22T5Iyedg1FbmufULEyuD4r+MOJDHoIV2WP8nJ5EOO8Rt+qBLjjX0Sq8a+gkVeS50NL4seDH8wzipoqJ5Hv2dqBCqUs9iWk2+W7twOfTjdPmUbSo+Ge08x0N1PPesKLuuGupdUCP9/knPOH7QEHNHMCBSXiRSNIT3wdt+ZV9Uth679PiBjoN6fHgupkZZz7lOQDDQfDU4X+mhPESjqUvkuV0R2XtaH3c+pvf1ybSqqz+3aHZbKOaM/rsqAC/sjsgvD0Tlxb0ReUmPtw9F3bk4cEZ/B61R931kgST/51kD3Zynvb1dwuGwTp57pL3zUv+4MS8MhF/IL/xkU2vGMyXCOp+6bZwUBP0f+dEn065GmTUA51rC/fZLwhgU5vndPguIBG3AyVssnlZwUUh6+qJOzF7d2eFm7vRiumGWt7H/YMKAZUOYKH/NZI9qhI3H01Av220+hpPNH0blh1vUy9oTkZ1qFDm6e2MyvcovkyoHN8IY8P/zcjjl8QMdGF1m6G+pAX5hT1S2qJj0qDgsmOSTfP3Mkr8nPX0iR89H5a9eCrtZ/C59bEWhyM1zr95CI0a87jfeisizOyNyVAUCb6ezx/NOQvqazfp7xzvZcyomv1CxqFNvpbLYJzPGX70gGWODgYTh+vm1XyVe2WXmC7XY8YyFYywkS/6x8/y02kjmF9vb5S9+ck6+9uIF1947PfxDqAcj/98eq5F//OJU+fw9Va409I+eaZBvvNwk3329Wf74ew2y72SPrJ5b7Azzo+vK5falpUPaaa1Ax0h+olTHzOwwE7wV45mX+Y4UiP8HZ5jJp44XI45xzHBuMCj1LTH5yfaI/MGP++S8ei7ZjMLx3N/ZFJEfbQ3LsQup77co3yflhT71kOJXxOExCBmPeU09C8PojzHvMRBG2n6k21X/ZEJ1eVCNeZGsmVsUv0ZcOOhnm1tdG2xKO9kn4c19Ha69BVtzwuyJ+bJoamFKSAlhyQv6pFQFguupIGJBGTu2Ha7vlSMNPW5tw5LpBXLj/GJZO69YFk5l17c85zlczlsBbsdA0moDr4Ry3auFEllEhmQ2Se3RzgmdDWPwCPMkQ4hndo1fZuosubTg8icQ40m450yr9xyTKnzyK2uDsnaWX1bPvHSsmO6XheoZTCz3Pkc8BWbo3XqQO8jze2GiUjXQENYZPGGul/Z5XgUhp6VT/FflMeANECr7uY7zmHoJ6mBKTZlPHlwelE/fFJD7lwbk7kUBuXNhQG6Z65c5tX4nWngtvHZrt7h8A9dXFGW/v5cxOslZj6GlU2eKw9DzB48hPSx06kKvqxZ692CnPLe1za1Qfu9gl+szxEyd6qO6C336f/QjYSzCFYzr2ffa5LXdHW5GzvMjZAgMRhijvvdkyIWbWPzGjnCDiUICXn/mhHzn4WQCCwOdxxC6PmaXFz0DPd9OgOM2F2N/5KyXD7hSxpf65OEbAvKJtOORFQF5bFVAnlobkM/dHJC7FvqdiPDaGN2X9kWcEFz5Kw4OQvfagYh7ryTbp43zyQPL/PJJHc99S7yx3L7AL3cu8juR+ISO9dduCaoQ+PR7RI8u/VzPeqEwBMswkhnzwtDcEXZJ3EyhJ9LkcanCwCrjSj1cFYwab7wAuqzesaxENiwudd1P2Zpzs3oWu0+E3A5s3A9YG0CDvBe3t8kP32lxq7LnTSpw3gGeCXkF+ia9tKNddhy5pORDhcopSmAJKWQCAkY1FDH60Q6fw866qJsZQ3mhyIpp/ovicPhcVA6rOCASVwKGdIoa3vQDb2CezrjxJB5aHpBH1SjfoK8H7rzpTL6p0xvXcMLwe9QL3Hs6qt+TmBPABRP9TqgWqQeTnFTm0y/Q8U/XsT65JiA3zQ5IVYn3negIiew9pcIwBM3nPXD/li4vwZ4+0bkSODfkQBDNwSq5hgPGS1UaYpjJZ+Gdd+8cNHbGnKBmcBpGNWNaGKjIYfbOLDxTiO1TEZQMM/JZanwJCWHQn36kRn73Y+Pl9x6qli99oloeXVfhFtd9/aVG1/vo3za2Og8gAUlofqJtXV4CmkqWT9xYLrctKZEGHTPXUXIavIrN+anCGY7WHVG1AFREdarHkO0fcCZg7CnXPHo+5n64GPO5E/zy6zpLLlZx5AwSGjrWGHVGIhsQFuJI9upcGesw73lE1RsGlaQyho4oZU2ZFyq7HEG9+SYVsVnVPvf9COtJQ0QjA1h5BINzeqIxJgfORGXL8ai8cyQqe1SQOM+czw59bwMZx24dI5VXHGf0dbgvITYS5NtOROWND6KuvJbn4j78jwc0WHeCZjXKVGHxGMQXkUkWe94OYuA+b70dAX3vaEQ2H/Vej8eebYu5kF9/8FhEK/H8jJnz3aDPt0+fa9OHUXn7cFTa9HuUaSeF0UVMArGwFEbax3aOob4pLFuPdLsN/zNlhc7i712hv74kzqrBTBj6P/hkrSs5TeQSCOG41cd6mbJREtR0TcXzoDU2olBVHnBbdRI6wpPYdSwkr+/pcB4G4SO+7FPG56voFLlqpCuB56f89ZWdHRk3w0Ng8WImqcc0WquTmMn98gOvZr+tW89bpc/F1+9Y4Jfnd0ekU3/YnE/i6ZPjs/2B4H4pOQZ9LkJJg60L4XbCVZSNJkR0uXoQVP+UFfqGLcfA81B59Nwu73lg8WS/3DLP+75djnH6Ez/ZqEZODSOCifdwz+Kg8yqS4Rwgav/4Zlj+4fWw/Ot7Xvnr62rM/2NnRF7ZH5VDDVEpzNMJUvVHOwHw/neo8f+1b/XKj7ZG5Iga2RKdV+1Tw/xXvwi76zCuCNNP34/IN98Ky7P6//bjMbl3id+1sR+I72yOyJ89H5Z/2eRVjs2b4HP5lYL4BAqxpPLqr1/qc+P/8faIvKzn/FUdM2OnnPekThAIEU4s/2h+BSF8ZnNY/uezffKcfneqSvxOfJ7ZFJG/13PBc71/MiY3z/HLOD1/13PZb3KOoaujVUr7zsucts1j22MgjNQ0DJvNsG5hYloYibj7c9vaZM+JkNSUB93q5fQvGF/uadWsQPb+Xjyt0B1AGe1uFYKObs+CICQklxdNLXBHYqbPngwf1PW43kXMhCiBbdCDdQpDgdwEIa9MoWoKsRqtIF4knZt0NgkY/jUzCSP51PD6XXkmYDBYn5AtXIlv0mnidTMN56WDIRqvBolZP8+MEd9/hlLUwd8Xq/c/uz4gX/tsvnz1M/nyPx7Ok5K0OQceFesfnv5Rn7yq5xSB4DWSYe0E1U3ffFuF47U+/T56eZ0EXEweDSG1774bcVVUzNYTTFDDXBYvBuC8nVXBq2/xhL4/EETEhNfHM+M3Nl89Q0TO3a7PTUL+yz/qdeNrx6NJGhfvA4+DxP3fvdonP94aVm8g6Q6KfpXcAYgM4cmvvhaWjUciKZ/tmCEalpKeBpnRvlUWN70slT2nxT+WE08Y0LNqWDNlvBr+ap19AzOhOjWShIWoSsJwEy5KrjpKwKydhDGsW1AsxTprfGt/h3zntWb5yeZW+e4bzfqDibjbvnB/lStf/eJD1e74w8dr5clbKp3gvHuoS/7yp+flb/79vPzts+flq89fkHf26y9tCEyqCkp5UebCQGiL1hyjEVx/jAluP+ELDCdJYOL/hJRudcLg3ZfY8JGzUVf/P0AE5ao5rM/Lkfy8zEqZKQ8nGETe11T1fAri5ajHdEb+PZ3l/tnzffLvOvPecyrqVn+nG3QmL4xpunox5B04T8kTGqqqCBth8PEICKNQVYXI/uqNQfnczUG5d3FAqvU5MN7MrvEeMJyEW5JJPg/1LVH58FzUhWO4fpwKJolwZvuzq33ub64nl+UMur5uf+w7HZPTzTH3OySHtGq6zy1cZPLFrP5dFf0fbAm7leWMBwHdMN8vn14XlE/dFHSXi/Tz4DbyTf+uHsQPtkRSw2H6R2Ls2Mftx6N6fvnOqBDpeceDnKdj57z087O/rgh2nZWi+nek6sxrMqHrkBRG2iQQ6xV/QhnHIoR6ODKlSmfcrDr2IGasxuWMt3c0C8CYSeM5pPcyag9FZPdxvV5/nVQc9elQdh7tdu0tWN/AY5ZOL5QH15S7fZvZx3nl7CJ33La0RD5+Y7kTDRLVhJxe2dnuxGiLCsXxc2m/wgGYOt5rzJcpLNhjW9TRSGL2SnIRQzhZf7izavxSpoYDg7F4it+FTIixIyLMSvfXeyvThwJGCCFJPzCaxM55bUIOP94WcZeB18V4VJdSmuyuGlYImzy8PHDRsLfrOcCgv7gn6tZRPKOz82+9rTP0jWEXPmHRHzF8DGKywU4Hj+r1D1iZHXWzZcTjgaUB+bQaVSqeHl3pVWH96o1eopvzzQz+zYNROd54KbSVDkab2wirkaT/zQ1B+TUVmXVzvNLf2TWeheU1N+nMvKXb/fkRXHGBCgMgJrctCFwMIfH+31FP58g5VpR7558xI2iP6bg5KDvmb0KNGH3yCJwb3gPvJR2uI/wX0J/Qeh3rf9Ix/8YtQfkVff/kdfhOXc/41Fvw97RKfk+T5Ec64tfq9/dLv//0V3yxsZdjwGC/qcZ057FQvx/4lXDDTDXWc4pczB7nnedj3QFrDcgj9Papu90WdhVK/OgQDmbYbMLz4vZ2Z1CX63Pg9yMm5BRa9TpCPJ+6rdKtVUg33lQVIUilOttn+8/9dT3uPfEY8g2r5w4t74CZojJqqEIyEIRqlul7oHKKGetogoQlsz5mknw2VN5QqolAMFbCDPQKwqsg4Ug7k3w93atmBPqND/McyTkG4u+EgzAiGJ3EcUhnnDzvxsP0JYrKjpPeqmNOT7HOSp9YE5SV0/0X100MV44BEJ6parRbujzRYqZPmIODMSACeA0YeOL7J/XcNLR6eQPyLYyIMEwizAmMifwIK6jJ03BuWBeBIV89w+88DYwx55XZPsaec86aCM7ZRBUpPJESfb/8zW3kABJQyXWPehtPqXHeMM/vKqnwPPh8yHngDfB95bVv0dt5Ps4R8LuiAuuHWyPuc+D62eoRflY9AfI3IR07q7r5HBA/ZvMI2CdUDBbq6zAxYPyU9c5XLwUhONvGufMKNSaUqeeikwkMPWEvciEHznifP6xV8eLzfGhZwK1fmaP3ddv5xsd3vdLe3uEmrj2xoHSE/RL1eV2ZA09/eWwmn6noYUvMxEKzTGBRG7N4jDQnLVGFtGFJiUyvzXNN7t7Y26mvyQ8qKid1dv32fq/UtL7Ja5K3YXGJLJxS6BaMIQz8cFap2Ny3sky9iYH3T0Aw8vXbyloHHnPb0lL5lQ2Vsm5+iROPwSjUH937x7pdd9lMQJTwbtjWlNbeowU8AAz0P+vMmNkmP+z7dIZ767yA/nDjd1IotSS8QAwaA41BuHdJwBn89B835zlZGDB8G494lSjJB9dtOx51horcBq+PocVQzZvgl9+5I+iSoomPaTiFgTFjmOaqgab/E+eB71lirQuXORAKqpcI+TgR0zEf18uMtVQ9qkoWt8XFAUGh6oj2HoyNsf/2bUH1DD7aAoZZOoLZqEaU88+ZQpzWxAWkP2HgfD+6MnjRO0iAET+rorX9ZNS9D84NgooAJXpb4bXtb4jJK/siri8VRQTc50E11IyNyQHnFTFkXDPG++VL9wWlWgUheeyJ88b4E40MGSveI2LF9cnCwEP5Hv3eXUH1GAIfycdc77SpivbkV8mF4CSpC1dJr79EYioOSfOFsQVrBBJrBjKlSj0FNsBJhx/hyllFrmUF1UbvHeyUb77cKH///AW3PgEBSEBFEvsuPHVrhdy7otT9GOm9NFhzOnIXLK7DW+HH+vG15e41E7mLweBeQ7vn4JCz4RhNUE5JCAFDBxglDErlpQXqDmZ5hA/AS3J6YRNWAg8nJJvvWuSXv34yzyVWk2fk2YAZNzPjv3wyX/7mqTz5/K1BN7utKlGR6kdvMIC76qKu0uivXgw7McAwwgW9zPkEvAXveVJzEMlMI0+hB2C4yUngjfQHz4GHQE4hHcQcbwIBSrA7aT0K8JltPBxxHhIQkrpx1qX7c19Ce1CuorF2picq6YKWgHFUq/ABHsYhFR3eQzqcw8U6LjwNvMCxTJ+/SM4Vz5eDlXeN3XJVYvG7joeGRRzIIbB4jbYU/UF46PU9nW71cm1l0CWNf/eB8c4bYMZPhRFrGni8T7+p3H/n0ZDbuH/B1MJBm+I1tkdk8wedzhu5a3mpq5C6XHfXZL79y2b1XjqlXR+bKd5ajjyZnrae41qyrz7m4vsJI0IVEjNzQinE+xMHOYU9p2Nuxg4YjFL9OGkJwQw/mXSPgQTmnYu8kATGLflYqEaDWT+lsY+sDMgTa1h1HHACkS4Kw+kxpMNrYRBn6WycUBohIFY8kzSePM4rJ3XJ6PjXAG+CEBQJWF6fpCqdYkm01sVn0SSKCY+xgptznH5QBfW+nls8KsCwUtaLMKd7DOPVCDMjp4KoP/g8CE3hgQHeB0JByAaoHPqaitkZ9fh4HfIS5DsIWwHj3qlj5fwiInVNXliM1+9v7JSc8t1BFHB3+N48qQKLmCR7DAgkk4obZ3mf6Vgj51pinGkOS3tX5sYQ6i70ysYDnfLeoUsnLhm8hZvmF8mciQUuiXwrYSMVAUIvLFj7zXuq9HKBm+UfP9vreiKxcOx8W8SFaC4HTexYXEYvJh7z8vvtbp0DYnE5aNz3/DaS1Z3uscMBr0nYbLRA2IFQAK0dEhCHdslgNezJh9dV9NL98DAIB2EsB6NWZ/70H/rMuqCLaScfXEcy88HlXk8iZpeEYLLtKaSD4adSiRALsXlm1BhWxvT4qoD83t1B+ZNP5LnQC54MYIgPqjCc0vOCUDHjTiR9EQ4WcNGMEA+jv4P8RUI8ATHgcf1RoAb2colaPJ8FE73wFKMj54AwYbgRiZON5G+8z43Pg/fHGoIECEJnvOwUASa0x0K8/sbNwdgTpc38y9j7A8HCUxjpz/NaMybfLsZ2OMsrvS04Q/KKGmXaWqRvXEOS+IHV5S6RTJhohs6qmYEQJmJ2vXRGofuyvr2vU36+rc0lkvl7z4lul4Ogp9JAsG6BBXqIAz+6rUe6XE8mylXxIPqD++4+3u0qn+rO92XURC8Z8jZ4O6MFvATaWJOsTIDhIMGKYKQf5BUSMOvkOsJJydf3B+WNzHQxXPPTjwlenJ8wFTNKjHO2Qcxe1lk8i86++656n2ro3Mw3DWa7jGlmtc8ljykzfUJnxYmEOF9jZuJ4V5SJck4S27giNLUqcHhFeDUDHbQAwSvhILRD6Wh/uJDOJTv+EYjjU2GFmBG+IcRHDoDPOFF1xu+E3wDnm3ElC403du8ynwHPtWRy/2NOHJwHxk3IbNUMqtb6HyBl57nGmBMGvhwX1Hhd0Jnt5QzulUJrDWb67I/Q3JHaHoJQ0PKZhXL/qjJXKdRfGwqqkFjD8I6KAy0wEBf2iXhXZ/9s88k2mukwQ992pNuFkQhlVZQEnNHfqUYfoQr3Y/ARMSqQaOp3oC7k1lgMF4wb72Ooi+uyDbNZwh+AkSDUc9t8zwAOdNA7KWG8EBFCTMkLrq4HCHW8uCci394YdiWpVOKQVB8MFxbR9798KtVA3nX8Xk6r8cVjKFYBTCwUY4aM6NEDihzGUA5KOBGTqwUP4PYFAVcxBlR+sS6EFiebjnh5JGw3Ip2eq6A0OVFsUKLvYZm+R0pV+xtnfwdJ8eRihVxnzAkDpVdH1OBmY/+AxvawvLC9zXVUxRsZyG3uD/ZgYKHZ+PKAW1swozZfaiqCrtqIkla8AmbklLZeUONLKGzTgU55Ke6l0L6bdQ406VsyzasOurS2woMfOX2hCHu9uiuzTXoGgnwLif1rDUYCUThyzvuc+VF/el1A/vSRPPnLJwc+vnB7MCXOvYNurDozvb6kwQt/tKnBxGgePBOV9P0YLgfVSIlW4DwPooCjQClqYiEgBpiQGLX7/QksB3kVqpDm1qqh1oPZfkJYrgYqpNbN9p6DSfpxfU9UPJ1rU+/6tNcFFgHAAyJclgxjTeQbWDdCMpvx9TdujjtUgPB23Nj1+4AI5lq46HKMuVOBcSQnQKvr4QYvgfUKX3uxUWf5vU6EhgoL3B65qUL++xMT5G8+P1n++b9Oc8328C5+9m6r/O8fnXOrmv9tU6vbrOd//eCsfO0Xja4XE83w/vjJCfLHT9XK//3CFPnq70yRJ26uiD/zJTpUDBGFH21siV8z/DSrFzMahKGhNepmurRvwBwQtiMsQAL2cpAYZdac4EC99zwYnesFNt+hHDNRZsqK7+MXvMtDgUV5iWQ9xjCxgrqyxJu1A9VLtDBn4dxAEKP/wdaIfOrrPfLZb/bInz7bJycar/53RwhocqUejEcvU4FE0zvEmzwDIyEkRoVQ+qeMMFBMAKyaZuzpC06TwUv8u1fDbuy/9c898rcv9/UbjstVxpwwEKJhsxsWmWUDtADP4XtvNruNcK6E6TV5bvOdCeOCLgexfkGxzJ9S4MpRqZ5iQyE2/mFh3qHTIelQr6RMPQ28C0pbL1eJRAiJxPTL73dITzwJlw1YzT0cbUYyZetx8gOeEaKqaKUae2aMlzlFDhKvVBIl4PMkT4FxvV7AAC6Z4vVKAnIqbx+OuGaBg81ViNXvVWObKO0M6NScklOqcYjLM9MmLMcEixwMi84SlVzJ4C3Tb4gVz1QB8TebFiVm7VcLBRp360yfMlnAU/jZjkuqvXZW4GKJbDJ4EYmkPx4QHVR3n+o/f8Q5YjU4JbGMnbULiyan5ixynTF3KpjFZ3srSmYi++pCLgx0JZ1b+dLTLA9RwFUmN8FzMVtlxjtrQr5bE0G565xJBXqd3+VJiO0PFrbafLDLeQt4S4MZh0wg1MXmQ9cS3h+dOymHBGa69MBhljkY3GdCuZfATIQOCElRg3+9QCO8JSpuN+IhFXqze/aaoGMpJZ0Ya3awY1ZM7oGSVBa2ff2NsOuBhLHH+yX8hkGl7QXnhRAOVVU0HeTMYjRpr0HXU54PI5uoBPveu2HXrI4upZjp4nz2rr7Uk+pqIQ9y81wvkQ/0viJchuCzRoWW4VRepcPkAI9x2RS/+360qqfzjbfCQkdYRB9vgCoschb/T88DmxzRGoXnrS7z2l3w2obHmBKGxP4LLTr7vpwbORzQFXXLoW63jefpq9ghji8vXgKGtld/2WyfSVvvB9d4B5e5jvdEsreLJHI/bwkhPHiqR365q90tokvfX3q4IUlOpRRj5z2MNBg0VvFSsULnTH7YVWpECDEM5YeNIBNLp4ImcX9KIanMYaZ5PcDMlpLNx1YFXVsIjDoru1noh7Gmidwzm8LyT+94B+2pv/9eWP5Db9tx3CvTJGyDkWUtALNzRJKDpO5di7ySVs4tpcAkunkODO0/6vFtfc6fIRb6erQYwWA/sCzgYvWsKs4EwmPTq/zelqhJy4bwjlZN97v33d/nzDlZqd+B9SpOrDthssVKb0SNflGMnYPurk7Q9PuDyCGMrDuZmRSaM8aYMBBCYbvN9HLSbEGil13WNh7oulhOeiWQHCapTEKZFhu3Li6WSePy3MFl2mgkEs79lcwhfpSPPr+9zYW1qHzKNhhmvDGqk2JX+oaHAZLO246zAtYrXSQZSWiB3MFgYaQEFUVeP6VEaSnlkKdavLp5SH8a/u7n9F85+hzJz+MuX+XzYhxpQPexJX6XsOX989ngJSQWduFB0FuIBV14DC6voK/HfSnR/NjSgNv7IFEFBIgEM28MPSE3SnVp+ZEQh2+px/HTHREnpIC3QSXY42uC6r1c+gzcW0t6b1xO+nNAuA+fy7IpqQlmxkjFEvtJDMRkvT97JLDynLYbCB2hKHo/0TLlOzp+wm18zpw/vEZ6N9Gqg9dMvJoba9Jghzr2scSYWvlM/HvviZAr8WSmPRKwlqC1K+J2d6stD7peSEOBLxs9l2ZPLHB5hkXTCt3eCQnKigLub7qrIhrcN/nLivZRIbRJRen7b7UITf1GClqE0PivWt/vUFdgDxeEN948GHGrbelbQ4nqhvkBma//DxVCeQjK9hNsVuMlXBPxdQ48M2LxhGi4jeZqd6pRyvSt8pkRzqCfD2NnURelo6ysvRoYz5IpftdJlsvtPTE3YydfQD8rYudcJvREqKVS3wtJ6zt0hvy4ehvMlPtrBIeBp8a/RM9Ra5dnFLkfz8nzsQaCUA+rxjGseC4zVCDSzw/7HjBr5xxOUy/AJY71fkMBw93cKa45Ho+fWOGXz61XYdDLl/sc8CgWTsZzocWHFzpM9EaiLxbnAfFbMMnbs5v9sdMrnPiM6lU88KyqSynv1efU71em+ZPRyEArn33H6+pikd5eKS8vl+rq6vjV1yckhV/f3SFff6kpqzmGdMgdsL/yn39uktRUsNNX9r9AvL8th7vkz358zl0eyck7azW+/GiN21Cov30ojJEHb4G244TZMGos3KOiiBALRpzQEJ4V4aMrKSklNk8uh7JgcguEaOgxRHknO7fhfY1G+D3Qt4mSV9ZDkGtBAFlngXDg6VDdlevU19dLKBSSptZWqT93Pn7tGBMGwjnscfCV7zcMS2+gocIXjqQys/vfurfKVRFlE1Yy0wvq+283yz59vyMd62cXuq98eoJMqqRSKn6lcU3hK0AlEaE2jDceM04zEkBIhVW91PczE7+SeQvfLZ6PeHyf/oHBRWyYDBF+GYE50FXD2DkfhGx5D5wMzgPjJjSV7inlIgMJw5j6WdNiekZtnpu9c3mk4MfCCmPKTdljmW0ws8mekyG3cQ8txUdaFNgPYu6kfLeznM9EYdTAtx0BIITCAjZCLoSqSAzjMXAdYZUrNeTcH0PqnlOfhzAMa0V4ndEsCsD4eM+EjzgfjJ8QIteZKFyeMfXT9ja3CcoDq8tkos5m+aGMFIgDuYY39nTIloPdWespRBM+ei6xE1x/bTSyCSW15EJuX1qqhsGfcwk5w8gVxlQoCTDQbd0R+ZfXmt2sumEYtva8Uminfc+KMlk2Q6cnwwjVVuRQaPGdba8kHUR2wZQC+fiNFfKxlWWjarMewzCujpzIMSSD4fzXN1ucIe0c4Zk18ddEGepwgeCFemPy7qFOt1ZjpJlQEZSnNlTKfSp46T2aDMO4Psk5YQD2XP7J5lYX3jEy47N3VMqDq8uznlg3DGPkyInkczqLp7FxTqlriX29gufBQrdrBd4Pu8bdsaxMJldZfZ9h5AJjWhgK8/2yYlaR2yeZUMhor6LoD/ol0WTvWkBlF2sWHr+5QmbW5rk9IQzDGPuMaWEAyivXzCt2La9ZTXytytRY58BubuQdaJaHkWUoic3+idtPHJfntgStKL60SI7Fa6xwHmkY3/TqfHlUz9uiqYVu/IZh5AY58WuvLgvKwzeWuzbX7M88kiBEGHo8lzVzi2Tl7CLX/+iWRSVSVOCXihK/3KC3bVhc6qqZuJ09oyfRmluNM/s1sHXoSMKiNcJGG5aUyN3LS60CyTByjJwQBgxdZUlAfuOeKlmsM3JCTCMFM/+Z6iFgZGmOx6pljO4X7q+S2sqg1Fbkyd03lMpDa8vc4jx4eG25rFKRYMy0nXhwTbm7fqQYp6+LiD6kr1uQ/9FNUQzDGNvkhDAAdfhsdvPELRWyZFpSP98sg8dAb5oXtrW5zX1++E6L24/5TGPYCQUNvliyv/Vwt/zDC42uiopj1oSClKZ6I8kt6rE8sLrc7TpnGEbukTPCkOCGmUVym87eaeswEkSjMTmlIrBMX/e37x8vX/nURPniQ9VOpBIrszu7o263NqDfDduH0smRbpAjDRVQdy4tdbvNGYaRm+ScMBDXv3Vxqdy5rHREYvfkCRCiyhK/a3j33NZWeWtvR0pHVLyKRMUU/7EpCT2QRrIPEiEvKpA+trrMJcApUzUMIzfJOWGAieOCLsF71/KyrJdgYnBZi8D/bLt54nyfCx0hUIkKKbf3Qm2+25dh8vg8WT2nWKhEGqlqJPYnmFgZdGW9y2YUjXiC3jCM0UVOCgPMUkNMsz0qgTCM2YI++Ucbep0YTKvJk6UzCl3snt3fuA6vAW+hpjzoKpIYz/jygBw8HZIGvQ/tw89ksd8Tr01JryeUpS7xbBhGbpOzwsBOa1QLff6eKpmis/RsiUNvX1R+saNd2BeaZPKUqjw5cLpHnnm92XVgZc9mNhg6p5fxKhjLa7s7XDsP9lU+2tAjb+/LXkuPkkK/LJ1eKJ9cX+E8BdtfwTCMMd0raSgwayfm/0+vNrkwz0hDXP++FaVyoS3iKpaQpxFMLbjNhT53Z5XcMOv6bRtiGMbVkZO9koYCnsL6hSVy78oytzJ5pAmpR4G3gNcAIykKLKy7d0WZLJg6cuW7hmGMfnJeGEgAE07BQDJ7ZmeykQRPgW06dx8Pxa8ZGShHvXNZiaydV+TWUhiGkaNEIxIMd0pJX9PFw3fgaF0sP5a7oaRkdh0Lyc+3tLoNfrp7R3LuPnKQbKZFxyPrKlwIy9poG0bucv6DjRI+d1DCbQ3S3dESv1btBFUzhgdtuqnMoXKITcPHGnhHtAOhVxPrOKaOt0VshpHL+Hs7JL/5kFQ0vS+TuvZfPPylFl6+CGsaWKFMJ1bWOoy1Ch32bKaz6+O3VHgrr7NYpmsYxuinp3qZhCaskb7SKRLzXQqjW3FiGrTAZmOfJ9V4suH9WGLyuDz5jburZN6kAssrGIbh6FVx6KxZI6FAWfwaE4Z+oavpbUtL5b6VZSPe8jpbsPr6gTXlriyVPSAMwzAg5g9Kc9EsOVG2RiI+L7xswtAPLDSjOunx9RWyfFaRlF+jHdSGi2nVeXL7EvpDlbj9HRKtOAzDMOjQ1ucvkuaCqSoOq91lE4YBSPQ4emBVmcs7lKhBvR4pLwrIjfOK45v/WLLZMIx+0Nlir79EzhUtkIbiBSYMg4FRpYJn7qQCFYv4ldcJVFatmF3oNgmaoyJnGIYxEFFfQELBMqkvWWbCMBhsa0l55+1LS6Sm4vrZuIYV3TTte+Smcld+m+0usoZhXP/EVBK6guNMGIYCG/Uz6/742or4NaMbPBtyJE8/UuM2JrKN/A3DuBLMYgyRWvUW7l1Z6owtawBG6wycclvCX19+rEYWTCmQAhMFwzCukJzvrnolhCMxaemMyIcNvXLqQp90hCJ6XfzGUQDhIzwF2onPrM23CiTDMC7LQN1VTRiukrauiIT6YhIZyf03B4FkM2JAU0DDMIzBSAhDY0urnDFhMAzDMJKFof7cufi1lmMwDMPIeQg5+/SfxGHCYBiGYaRgwmAYhmGkYMJgGIZhpGDCYBiGYaRgwmAYhmGkYMJgGIZhpGDCYBiGYaRgwmAYhmGkYMJgGIZhpGDCYBiGYaRgwmAYhmGkYMJgGIZhpGDCYBiGYaRgwmAYhmGkYMJgGIZhpGDCYBiGYaRgwmAYhmGkYMJgGIZhpGDCYBiGYaRgwmAYhmGkcFEYotGoRCKR+F+GYRjGWCYcDkssFrt4JOOrqz8T6+sJSV4wKEVFReL3mxNhGIYx1sER6OzslO5QSJpaW+VCc0v8FhWGM41Nsb7ubgn39UpMvQbDMAxj7IOXEFZxaFdxaGlvl67uUPwWFYZz7R2xSG+v9KlqRMJ97s49ejndtTAMwzDGDlG18V3qFCAK3aGe+LUeThh8Pl/8T5G+vj7ZuWOH+98wDMMYu+AAJNv/BJZQuMaYZ3ZtsfN/bbHzPzoxYTAMwzBS6FcY+nMtDMMwjFxA5P8DntsHdM6fboAAAAAASUVORK5CYII=;" vertex="1" parent="1">
          <mxGeometry x="550" y="310" width="206.63" height="80" as="geometry" />
        </mxCell>
        <mxCell id="IPt7vLDkBbHdbNGIL6cd-9" style="edgeStyle=orthogonalEdgeStyle;rounded=0;orthogonalLoop=1;jettySize=auto;html=1;" edge="1" parent="1">
          <mxGeometry relative="1" as="geometry">
            <mxPoint x="228" y="350" as="sourcePoint" />
            <mxPoint x="343" y="350" as="targetPoint" />
          </mxGeometry>
        </mxCell>
        <mxCell id="IPt7vLDkBbHdbNGIL6cd-15" style="edgeStyle=orthogonalEdgeStyle;rounded=0;orthogonalLoop=1;jettySize=auto;html=1;" edge="1" parent="1">
          <mxGeometry relative="1" as="geometry">
            <mxPoint x="445.4000000000001" y="350" as="sourcePoint" />
            <mxPoint x="549" y="350" as="targetPoint" />
          </mxGeometry>
        </mxCell>
      </root>
    </mxGraphModel>
  </diagram>
</mxfile>
